<?xml version="1.0" standalone="no"?>
<!DOCTYPE svg PUBLIC "-//W3C//DTD SVG 20010904//EN"
 "http://www.w3.org/TR/2001/REC-SVG-20010904/DTD/svg10.dtd">
<svg version="1.0" xmlns="http://www.w3.org/2000/svg"
 width="449.000000pt" height="449.000000pt" viewBox="0 0 449.000000 449.000000"
 preserveAspectRatio="xMidYMid meet">
<metadata>
Created by potrace 1.11, written by Peter Selinger 2001-2013
</metadata>
<g transform="translate(0.000000,449.000000) scale(0.100000,-0.100000)"
fill="#000000" stroke="none">
<path d="M1595 4200 c-69 -23 -145 -77 -191 -137 -51 -67 -74 -141 -79 -256
-3 -55 -7 -102 -9 -104 -2 -2 -266 -4 -587 -4 -328 1 -602 -3 -624 -9 -25 -5
-52 -22 -72 -44 l-33 -36 0 -1504 c0 -1472 0 -1505 20 -1567 36 -115 122 -202
245 -248 56 -21 59 -21 1980 -21 1921 0 1924 0 1980 21 122 45 210 134 245
248 20 62 20 95 20 1556 0 1648 4 1546 -63 1582 -29 17 -79 18 -641 20 -335 2
-611 4 -613 6 -2 2 -5 49 -8 104 -5 115 -28 189 -79 256 -47 61 -122 115 -195
137 -60 19 -92 20 -650 19 -550 0 -590 -1 -646 -19z m1242 -260 c52 -31 66
-63 71 -156 4 -73 2 -84 -12 -84 -9 0 -302 0 -651 0 -349 0 -642 0 -650 0 -12
0 -15 15 -15 73 0 85 19 131 69 164 l34 23 561 0 c538 0 562 -1 593 -20z
m1333 -515 c14 -9 -398 -1231 -427 -1265 -13 -16 -41 -34 -61 -40 -40 -11
-739 -15 -766 -4 -13 5 -16 22 -16 81 0 94 -19 137 -71 163 -36 19 -63 20
-584 20 -517 0 -548 -1 -583 -19 -56 -29 -72 -65 -72 -159 0 -64 -3 -81 -16
-86 -27 -10 -726 -7 -765 4 -71 20 -73 23 -292 682 -112 339 -201 620 -196
625 8 8 3835 7 3849 -2z m-3795 -1017 c59 -178 117 -339 128 -358 29 -50 95
-117 144 -145 86 -51 126 -55 550 -55 l393 0 0 -91 0 -91 39 -39 39 -39 577 0
577 0 39 39 39 39 0 91 0 91 393 0 c416 0 449 3 540 50 52 27 121 92 151 145
13 22 72 186 132 365 l109 325 3 -1054 c2 -997 1 -1056 -16 -1085 -10 -17 -33
-39 -52 -48 -33 -17 -145 -18 -1913 -18 -2067 0 -1926 -4 -1967 62 -20 33 -20
47 -20 1086 0 578 2 1052 4 1052 2 0 53 -145 111 -322z m2258 -298 c4 0 6 -57
5 -127 l-3 -128 -390 0 -390 0 -3 124 c-1 70 1 127 7 130 6 4 608 5 774 1z"/>
</g>
</svg>
